<svg xmlns="http://www.w3.org/2000/svg" viewBox="0 0 78.45 74.86">
    <defs>
        <style>
            .cls-1 {
                fill: #414042;
            }
        </style>
    </defs>
    <g id="Layer_2" data-name="Layer 2">
        <g id="Layer_1-2" data-name="Layer 1">
            <path class="cls-1"
                d="M41.53,1.46l9.83,20.85a2.55,2.55,0,0,0,2,1.45l22.86,2.9a2.55,2.55,0,0,1,1.43,4.39L60.85,46.84a2.58,2.58,0,0,0-.76,2.34L64.4,71.82a2.56,2.56,0,0,1-3.74,2.72L40.45,63.45a2.54,2.54,0,0,0-2.45,0L17.79,74.54a2.56,2.56,0,0,1-3.74-2.72l4.31-22.64a2.58,2.58,0,0,0-.76-2.34L.81,31.05a2.55,2.55,0,0,1,1.42-4.39l22.87-2.9a2.58,2.58,0,0,0,2-1.45L36.92,1.46A2.55,2.55,0,0,1,41.53,1.46Z" />
        </g>
    </g>
</svg>